<svg xmlns="http://www.w3.org/2000/svg" xmlns:xlink="http://www.w3.org/1999/xlink" width="500" zoomAndPan="magnify" viewBox="0 0 375 374.999991" height="500" preserveAspectRatio="xMidYMid meet" version="1.0"><defs><clipPath id="e5d6a82bc6"><path d="M 55 42.070312 L 369.644531 42.070312 L 369.644531 123 L 55 123 Z M 55 42.070312 " clip-rule="nonzero"/></clipPath><clipPath id="b407c348ab"><path d="M 5.144531 252 L 320 252 L 320 333 L 5.144531 333 Z M 5.144531 252 " clip-rule="nonzero"/></clipPath></defs><g clip-path="url(#e5d6a82bc6)"><path fill="#ff7204" d="M 115.28125 42.070312 L 369.753906 42.070312 L 310.378906 122.40625 L 55.902344 122.40625 Z M 115.28125 42.070312 " fill-opacity="1" fill-rule="evenodd"/></g><path fill="#ebebeb" d="M 55.902344 122.40625 L 183.140625 122.40625 L 118.753906 209.148438 L 62.847656 132.015625 Z M 55.902344 122.40625 " fill-opacity="1" fill-rule="evenodd"/><g clip-path="url(#b407c348ab)"><path fill="#ff7204" d="M 259.738281 332.917969 L 5.269531 332.917969 L 64.773438 252.582031 L 319.246094 252.582031 Z M 259.738281 332.917969 " fill-opacity="1" fill-rule="evenodd"/></g><path fill="#ebebeb" d="M 319.246094 252.582031 L 192.007812 252.582031 L 256.269531 165.839844 L 312.304688 242.972656 Z M 319.246094 252.582031 " fill-opacity="1" fill-rule="evenodd"/></svg>